<?xml version="1.0"?>
<svg xmlns="http://www.w3.org/2000/svg" xmlns:xlink="http://www.w3.org/1999/xlink" xmlns:svgjs="http://svgjs.com/svgjs" version="1.1" width="512" height="512" x="0" y="0" viewBox="0 0 300 300" style="enable-background:new 0 0 512 512" xml:space="preserve" class=""><g><g xmlns="http://www.w3.org/2000/svg"><path d="m263.701 96.699c-7.55-7.511-17.563-11.644-28.209-11.644-.034 0-.07 0-.104 0-6.7.017-13.143 1.671-18.875 4.768v-11.823c0-2.122-.843-4.157-2.343-5.657l-48-48c-1.5-1.5-3.535-2.343-5.657-2.343h-128c-4.418 0-8 3.582-8 8v240c0 4.418 3.582 8 8 8h176c4.418 0 8-3.582 8-8v-24c0-4.418-3.582-8-8-8s-8 3.582-8 8v16h-45.058c.008-.005.015-.011.023-.017.057-.039.111-.083.167-.123.204-.147.402-.305.594-.474.076-.067.151-.134.224-.204.058-.055.121-.104.178-.162l95.912-96.403c.003-.003.006-.005.009-.008s.005-.006.008-.009l11.276-11.334c7.536-7.574 11.671-17.629 11.644-28.314-.028-10.683-4.215-20.717-11.789-28.253zm-95.19-47.386 20.687 20.687h-20.687zm-68.748 155.464c-.068.072-.133.146-.198.22-.171.196-.33.398-.478.606-.038.053-.078.103-.115.157-.187.277-.357.561-.505.854-.016.031-.028.064-.044.095-.131.266-.244.538-.344.814-.026.071-.05.141-.074.212-.099.302-.185.607-.247.917-.003.012-.007.024-.01.036l-.005.023c-.002.011-.004.021-.006.032l-10.509 53.257h-46.717v-224h112v40c0 4.418 3.582 8 8 8h40v16c0 .469.048.925.126 1.372l-4.785 4.81c-.001.001-.003.003-.005.004s-.003.003-.004.005l-95.917 96.407c-.058.057-.107.12-.163.179zm4.837 51.835 5.952-30.159 24.176 24.054zm46.339-12.547-34.027-33.854 84.636-85.068 34.027 33.854zm101.563-102.083-5.642 5.671-34.027-33.853 5.642-5.671c4.521-4.545 10.542-7.057 16.952-7.073h.063c6.387 0 12.396 2.479 16.925 6.986 4.545 4.521 7.057 10.542 7.073 16.952.017 6.411-2.464 12.444-6.986 16.988z" fill="#ffffff" data-original="#000000" style="" class=""/><path d="m190.32 159.111-45.14 45.37c-3.116 3.132-3.103 8.198.029 11.314 1.561 1.553 3.602 2.329 5.643 2.329 2.054 0 4.108-.786 5.671-2.357l45.14-45.37c3.116-3.132 3.103-8.198-.029-11.314-3.132-3.117-8.197-3.104-11.314.028z" fill="#ffffff" data-original="#000000" style="" class=""/><path d="m64.511 86h48c4.418 0 8-3.582 8-8s-3.582-8-8-8h-48c-4.418 0-8 3.582-8 8s3.582 8 8 8z" fill="#ffffff" data-original="#000000" style="" class=""/><path d="m160.511 102h-96c-4.418 0-8 3.582-8 8s3.582 8 8 8h96c4.418 0 8-3.582 8-8s-3.581-8-8-8z" fill="#ffffff" data-original="#000000" style="" class=""/><path d="m136.511 126h-72c-4.418 0-8 3.582-8 8s3.582 8 8 8h72c4.418 0 8-3.582 8-8s-3.581-8-8-8z" fill="#ffffff" data-original="#000000" style="" class=""/><path d="m112.511 150h-48c-4.418 0-8 3.582-8 8s3.582 8 8 8h48c4.418 0 8-3.582 8-8s-3.581-8-8-8z" fill="#ffffff" data-original="#000000" style="" class=""/></g></g></svg>
