<?xml version="1.0"?>
<svg xmlns="http://www.w3.org/2000/svg" xmlns:xlink="http://www.w3.org/1999/xlink" xmlns:svgjs="http://svgjs.com/svgjs" version="1.1" width="512" height="512" x="0" y="0" viewBox="0 0 368 368" style="enable-background:new 0 0 512 512" xml:space="preserve" class=""><g><path xmlns="http://www.w3.org/2000/svg" d="m360 16c4.425781 0 8-3.585938 8-8s-3.574219-8-8-8h-352c-4.414062 0-8 3.585938-8 8s3.585938 8 8 8c13.230469 0 24 10.769531 24 24v312h-24c-4.414062 0-8 3.585938-8 8s3.585938 8 8 8h352c4.425781 0 8-3.585938 8-8s-3.574219-8-8-8h-24v-312c0-13.230469 10.769531-24 24-24zm-120 64h32v80h-32zm-7.792969-64c-5.078125 6.703125-8.207031 14.960938-8.207031 24v24h-80v-24c0-9.039062-3.128906-17.296875-8.207031-24zm-8.207031 64v80h-32v-80zm-48 0v80h-32v-80zm-136.015625-64h64.015625c13.230469 0 24 10.769531 24 24v24h-80v-24c0-9-2.992188-17.3125-8.015625-24zm88.015625 64v80h-32v-80zm-48 0v80h-32v-80zm48 272h-80v-48h80zm96 0h-80v-72c0-22.054688 17.945312-40 40-40s40 17.945312 40 40zm96 0h-80v-48h80zm0-64h-80v-8c0-30.878906-25.128906-56-56-56-30.878906 0-56 25.121094-56 56v8h-80v-112h272zm0-128h-32v-80h32zm0-120v24h-80v-24c0-13.230469 10.769531-24 24-24h64.015625c-5.03125 6.6875-8.015625 15-8.015625 24zm0 0" fill="#ffffff" data-original="#000000" style="" class=""/></g></svg>
