<?xml version="1.0" encoding="utf-8"?>
<!-- Generator: Adobe Illustrator 24.0.0, SVG Export Plug-In . SVG Version: 6.00 Build 0)  -->
<svg version="1.1" id="Слой_1" xmlns="http://www.w3.org/2000/svg" xmlns:xlink="http://www.w3.org/1999/xlink" x="0px" y="0px"
	 viewBox="0 0 841.9 595.3" style="enable-background:new 0 0 841.9 595.3;" xml:space="preserve">
<style type="text/css">
	.st0{fill:#1c75bc;}
	.st1{fill-rule:evenodd;clip-rule:evenodd;fill:#1c75bc;}
</style>
<title>1</title>
<g>
	<g id="Claim">
		<path class="st0" d="M189.3,343.9l7.1,17.7l1.1,2.8h0.1l1-2.8l7.2-17.7h5.7v27.8h-4.7v-16.1l0.1-3l-0.1-0.1l-1.1,2.8l-6.5,16.3
			h-3.5l-6.5-16.3l-1.1-2.8l-0.1,0.1l0.1,3v16.1h-4.5v-27.8H189.3z"/>
		<path class="st0" d="M220.5,346.5c-1.9,0-2.8-0.6-2.8-2.2c0-1.5,0.9-2.3,2.8-2.3s2.8,0.8,2.8,2.3S222.4,346.5,220.5,346.5z
			 M218,371.7v-22.1l4.8-0.3v22.4H218z"/>
		<path class="st0" d="M229.5,371.7v-29l4.7-0.3v29.2L229.5,371.7L229.5,371.7z"/>
		<path class="st0" d="M239.1,360.2c0-7.1,3.1-11.1,9.6-11.1c5.5,0,9,3.2,9,10.3c0,0.7-0.1,1.6-0.1,2.3H244c0.2,4.7,2.2,6.3,6.4,6.3
			c2.2,0,4.1-0.4,6-1.2l0.6,3.9c-1.9,0.9-4.3,1.5-7.1,1.5C242.3,372.1,239.1,368.2,239.1,360.2z M253.3,358.4
			c-0.1-3.9-1.9-5.4-4.6-5.4c-3.2,0-4.6,1.6-4.8,5.4H253.3z"/>
		<path class="st0" d="M267.7,372.2c-2.6,0-5.1-0.6-6.9-1.7l0.6-4c1.7,1.1,4.3,1.7,6.4,1.7c2.7,0,3.8-1.2,3.8-2.9
			c0-4.2-10.9-2-10.9-9.7c0-3.9,2.7-6.6,8.2-6.6c2.2,0,4.3,0.5,6.2,1.2l-0.4,3.9c-1.9-0.8-4.2-1.1-5.9-1.1c-2.2,0-3.6,0.9-3.6,2.4
			c0,3.9,10.7,1.7,10.7,9.5C275.9,369.2,273.5,372.2,267.7,372.2z"/>
		<path class="st0" d="M285.2,353v12.4c0,2,1,2.8,2.9,2.8c0.6,0,1.4-0.1,1.8-0.3l0.3,3.6c-0.7,0.3-2.1,0.6-3.5,0.6
			c-4.2,0-6.3-2.4-6.3-6.5V353h-2.8v-3.6h2.9l0.8-5.2l3.7-0.4v5.6h5.2v3.6L285.2,353L285.2,353z"/>
		<path class="st0" d="M379.9,353v12.4c0,2,1,2.8,2.9,2.8c0.6,0,1.4-0.1,1.8-0.3l0.3,3.6c-0.7,0.3-2.1,0.6-3.5,0.6
			c-4.2,0-6.3-2.4-6.3-6.5V353h-2.8v-3.6h2.9l0.8-5.2l3.7-0.4v5.6h5.2v3.6L379.9,353L379.9,353z"/>
		<path class="st0" d="M302.6,372.2c-6.9,0-10-3.3-10-11.6c0-8.2,3.1-11.6,10-11.6c6.9,0,9.9,3.4,9.9,11.6
			C312.5,368.9,309.6,372.2,302.6,372.2z M302.6,368.3c3.7,0,5-1.8,5-7.7c0-5.9-1.4-7.7-5-7.7c-3.7,0-5.1,1.8-5.1,7.7
			C297.6,366.5,299,368.3,302.6,368.3z"/>
		<path class="st0" d="M330.2,371.7v-14.4c0-2.8-1.5-4-4.3-4c-1.7,0-3.6,0.7-4.5,2v16.4h-4.7v-22.2l3.4-0.2l0.7,2.1
			c1.7-1.6,3.9-2.4,6.3-2.4c4.7,0,7.7,2.9,7.7,8.3v14.4H330.2L330.2,371.7z"/>
		<path class="st0" d="M338.8,360.2c0-7.1,3.1-11.1,9.6-11.1c5.5,0,9,3.2,9,10.3c0,0.7-0.1,1.6-0.1,2.3h-13.6
			c0.2,4.7,2.2,6.3,6.4,6.3c2.2,0,4.1-0.4,6-1.2l0.6,3.9c-1.9,0.9-4.3,1.5-7.1,1.5C342.1,372.1,338.8,368.2,338.8,360.2z M353,358.4
			c-0.1-3.9-1.9-5.4-4.6-5.4c-3.2,0-4.6,1.6-4.8,5.4H353z"/>
		<path class="st0" d="M397.1,372.2c-6.9,0-10-3.3-10-11.6c0-8.2,3.1-11.6,10-11.6s9.9,3.4,9.9,11.6
			C406.9,368.9,404,372.2,397.1,372.2z M397.1,368.3c3.7,0,5-1.8,5-7.7c0-5.9-1.4-7.7-5-7.7c-3.7,0-5.1,1.8-5.1,7.7
			C392,366.5,393.4,368.3,397.1,368.3z"/>
		<path class="st0" d="M429.1,372.4l0.1-0.3l-9.7-22h5.4l5.5,14.8l1,2.8h0.1l0.7-2.9l4.3-14.8h5l-7.9,22.4c-1.6,4.4-4,6-7.5,6
			c-1.3,0-2.5-0.2-3.6-0.7l0.4-3.4c0.8,0.4,1.6,0.6,2.4,0.6C427.1,374.9,428.3,374.3,429.1,372.4z"/>
		<path class="st0" d="M453.5,372.9c-6.9,0-10-3.3-10-11.6c0-8.2,3.1-11.7,10-11.7c6.9,0,9.9,3.4,9.9,11.7
			C463.4,369.5,460.5,372.9,453.5,372.9z M453.5,368.9c3.7,0,5-1.8,5-7.6c0-5.9-1.4-7.7-5-7.7c-3.7,0-5.1,1.8-5.1,7.7
			C448.4,367.2,449.9,368.9,453.5,368.9z"/>
		<path class="st0" d="M485.5,364.7c0,5.2-3,8.1-9.1,8.1c-6.1,0-9-2.9-9-8.1v-14.7h4.7v14.5c0,2.5,1.4,3.9,4.4,3.9
			c2.9,0,4.3-1.3,4.3-3.9v-14.5h4.7V364.7z"/>
		<path class="st0" d="M490.5,372.3v-22.1l3.8-0.2l0.4,4.2h0.1c1.4-2.9,3.7-4.5,6.4-4.5c0.9,0,1.7,0.1,2.3,0.3l-0.3,4.8
			c-0.7-0.2-1.5-0.4-2.3-0.4c-3.2,0-5.7,2.5-5.7,6.7v11.2L490.5,372.3L490.5,372.3z"/>
		<path class="st0" d="M524.6,372.8c-2.6,0-5.1-0.6-6.9-1.7l0.6-4c1.7,1.1,4.3,1.7,6.4,1.7c2.7,0,3.8-1.2,3.8-2.9
			c0-4.2-10.9-2-10.9-9.7c0-3.9,2.7-6.6,8.2-6.6c2.2,0,4.3,0.5,6.2,1.2l-0.4,3.9c-1.9-0.8-4.2-1.1-5.9-1.1c-2.3,0-3.6,0.9-3.6,2.4
			c0,3.9,10.7,1.7,10.7,9.5C532.8,369.9,530.4,372.8,524.6,372.8z"/>
		<path class="st0" d="M554.7,364.7c0,5.2-3,8.1-9.1,8.1s-9-2.9-9-8.1v-14.7h4.7v14.5c0,2.5,1.4,3.9,4.3,3.9c2.9,0,4.3-1.3,4.3-3.9
			v-14.5h4.7V364.7L554.7,364.7z"/>
		<path class="st0" d="M573.7,354.9c-1.2-0.5-2.7-0.8-4.1-0.8c-4.5,0-6,2-6,7.2c0,5.5,2.1,7.5,5.9,7.5c1.6,0,3.2-0.4,4.4-1l0.3,3.8
			c-1.3,0.8-3.3,1.4-5.7,1.4c-6.4,0-9.8-3.7-9.8-11.7c0-7.4,3-11.4,9.9-11.4c1.9,0,3.9,0.4,5.4,1L573.7,354.9z"/>
		<path class="st0" d="M591.5,354.9c-1.2-0.5-2.7-0.8-4.1-0.8c-4.5,0-6,2-6,7.2c0,5.5,2.1,7.5,5.9,7.5c1.6,0,3.2-0.4,4.4-1l0.3,3.8
			c-1.3,0.8-3.3,1.4-5.7,1.4c-6.4,0-9.8-3.7-9.8-11.7c0-7.4,3-11.4,9.9-11.4c1.9,0,3.9,0.4,5.4,1L591.5,354.9z"/>
		<path class="st0" d="M594.3,360.8c0-7.1,3.1-11.1,9.6-11.1c5.5,0,9,3.2,9,10.3c0,0.7-0.1,1.6-0.1,2.3h-13.6
			c0.2,4.7,2.2,6.3,6.4,6.3c2.2,0,4.1-0.4,6-1.2l0.6,3.9c-1.9,0.9-4.3,1.5-7.1,1.5C597.5,372.8,594.3,368.8,594.3,360.8z
			 M608.5,359.1c-0.1-3.9-1.9-5.4-4.6-5.4c-3.2,0-4.6,1.6-4.8,5.4H608.5z"/>
		<path class="st0" d="M622.9,372.8c-2.6,0-5.1-0.6-6.9-1.7l0.6-4c1.7,1.1,4.3,1.7,6.4,1.7c2.7,0,3.8-1.2,3.8-2.9
			c0-4.2-10.9-2-10.9-9.7c0-3.9,2.7-6.6,8.2-6.6c2.2,0,4.3,0.5,6.2,1.2l-0.4,3.9c-1.9-0.8-4.2-1.1-5.9-1.1c-2.2,0-3.6,0.9-3.6,2.4
			c0,3.9,10.7,1.7,10.7,9.5C631.1,369.9,628.7,372.8,622.9,372.8z"/>
		<path class="st0" d="M640.9,372.8c-2.6,0-5.1-0.6-6.9-1.7l0.6-4c1.7,1.1,4.3,1.7,6.4,1.7c2.7,0,3.8-1.2,3.8-2.9
			c0-4.2-10.9-2-10.9-9.7c0-3.9,2.7-6.6,8.2-6.6c2.2,0,4.3,0.5,6.2,1.2l-0.4,3.9c-1.9-0.8-4.2-1.1-5.9-1.1c-2.3,0-3.6,0.9-3.6,2.4
			c0,3.9,10.7,1.7,10.7,9.5C649.1,369.9,646.6,372.8,640.9,372.8z"/>
		<path class="st0" d="M655.3,372.8c-2,0-2.9-0.8-2.9-2.8c0-1.8,0.8-2.8,2.9-2.8c2,0,2.9,1,2.9,2.8
			C658.2,371.7,657.3,372.8,655.3,372.8z"/>
	</g>
	<g>
		<g id="Logo">
			<path class="st0" d="M458.1,308.2v-14.9c0-3.5,1.9-5.4,5.4-5.4H509c3.5,0,5.4-1.9,5.4-5.4v-5.7H479c-14.1,0-21.6-7.6-21.6-21.6
				v-16.6c0-14.1,7.6-21.6,21.6-21.6h64.2v13.4c0,3.5-1.9,5.4-5.4,5.4h-41.3c-3.5,0-5.4,1.9-5.4,5.4v5.4h35.4
				c14.1,0,21.6,7.6,21.6,21.6v18.5c0,14.1-7.6,21.6-21.6,21.6L458.1,308.2L458.1,308.2z"/>
			<path class="st1" d="M584.1,308.2c-14.1,0-21.6-7.6-21.6-21.6V268c0-14.1,7.6-21.6,21.6-21.6H623V241c0-3.5-1.9-5.4-5.4-5.4
				h-43.2c-3.5,0-5.4-1.9-5.4-5.4v-13.4h67.6c14.1,0,21.6,7.6,21.6,21.6v69.7h-31.6l-2-8.6c-3.4,5.7-9.7,8.6-18.5,8.6H584.1z
				 M597.6,282.6c0,3.5,1.9,5.4,5.4,5.4h14.7c3.4,0,5.3-1.8,5.4-5.1V266h-20c-3.5,0-5.4,1.9-5.4,5.4V282.6z"/>
			<path class="st1" d="M368.8,308.2c-14.1,0-21.6-7.6-21.6-21.6V268c0-14.1,7.6-21.6,21.6-21.6h38.9V241c0-3.5-1.9-5.4-5.4-5.4
				h-43.2c-3.5,0-5.4-1.9-5.4-5.4v-13.4h67.6c14.1,0,21.6,7.6,21.6,21.6v69.7h-31.6l-2.1-8.6c-3.4,5.7-9.7,8.6-18.5,8.6H368.8z
				 M382.3,282.6c0,3.5,1.9,5.4,5.4,5.4h14.7c3.4,0,5.3-1.8,5.4-5.1V266h-19.9c-3.5,0-5.4,1.9-5.4,5.4L382.3,282.6L382.3,282.6z"/>
			<path class="st0" d="M311.2,216.9c14.1,0,21.7,7.6,21.7,21.6v69.7h-35.6v-65.7c0-3.5-1.9-5.4-5.4-5.4h-10.5
				c-3.5,0-5.4,1.9-5.4,5.4v65.7h-35.6v-65.7c0-3.5-1.9-5.4-5.4-5.4h-10.5c-3.5,0-5.4,1.9-5.4,5.4v65.7H189c-3.5,0-5.4-1.9-5.4-5.4
				v-85.9h31.9l2,8.5c2.9-5.6,8.3-8.5,17.1-8.5h22.9c8.7,0,13.8,2.9,16.3,8.5c2.9-5.5,8.3-8.5,17-8.5H311.2z"/>
		</g>
	</g>
</g>
</svg>
